Coordinates
version=1
nRows=14
nColumns=36
inDegrees=yes

Units are S.I. units (second, meters, Newtons, ...)
If the header above contains a line with 'inDegrees', this indicates whether rotational values are in degrees (yes) or radians (no).

endheader
time	pelvis_tilt	pelvis_list	pelvis_rotation	pelvis_tx	pelvis_ty	pelvis_tz	hip_flexion_r	hip_adduction_r	hip_rotation_r	knee_angle_r	knee_angle_r_beta	ankle_angle_r	subtalar_angle_r	mtp_angle_r	hip_flexion_l	hip_adduction_l	hip_rotation_l	knee_angle_l	knee_angle_l_beta	ankle_angle_l	subtalar_angle_l	mtp_angle_l	lumbar_extension	lumbar_bending	lumbar_rotation	arm_flex_r	arm_add_r	arm_rot_r	elbow_flex_r	pro_sup_r	arm_flex_l	arm_add_l	arm_rot_l	elbow_flex_l	pro_sup_l
      0.00000000	      0.80888960	     -3.00234937	      1.15908150	      1.14376257	      0.96591256	      0.09687568	     23.01045948	      0.47115054	      0.13947336	     41.62592584	      0.72650946	     -3.36139785	    -19.33954877	     -6.91421821	     -0.82820113	      0.55519762	      1.75208311	      7.33460631	      0.12801303	     11.64429432	     -4.74237888	     -6.91421821	     -4.54730284	      1.70346606	     -5.47729966	     23.08655416	      0.05599392	     62.81282493	    123.38928141	     93.22639409	     24.64891305	     -1.19694589	     40.71673025	    122.67941993	    101.91755193
      0.01666670	      1.24718808	     -3.28270234	      1.24369207	      1.14369810	      0.96707088	      0.09490820	     23.00447539	      0.44224855	     -0.78348475	     38.65490466	      0.67465536	     -2.00909844	    -16.77033294	     -6.99861466	     -1.29557238	      0.49060807	      2.46760814	      8.32153781	      0.14523823	     11.51461558	     -5.54647364	     -6.99861466	     -5.95230536	      2.01777860	     -4.86278358	     26.48677940	     -1.62754770	     70.20723739	    127.04918856	    105.66825492	     26.85581946	     -1.35158562	     40.82925268	    126.93635068	    109.11533896
      0.03333330	      0.87854464	     -3.09285626	      1.42621508	      1.13880264	      0.96927799	      0.09209298	     23.60502137	      0.56706686	      0.23594269	     35.07333886	      0.61214524	     -1.46278747	    -16.28840932	     -7.05022285	     -1.02173336	      0.88239320	      3.56784190	      8.13010907	      0.14189717	     11.52522517	     -5.88009028	     -7.05022285	     -5.81207027	      1.64226662	     -4.99771433	     25.73016585	     -0.05287483	     69.85321983	    127.41391484	    107.97175324	     26.92827275	     -2.43986953	     42.12628367	    128.13195353	    109.92846762
      0.05000000	      0.98584239	     -3.58041660	      1.79826731	      1.14503259	      0.97437728	      0.08951761	     23.14011694	      0.95471236	      0.20955551	     31.68951469	      0.55308637	     -0.95219359	    -14.98819008	     -7.12738354	     -1.44817117	      0.43757217	      3.75530695	      7.70611060	      0.13449700	     11.97379596	     -5.26125371	     -7.12738354	     -5.67035442	      2.25756008	     -5.33854784	     24.99723827	      0.74122211	     70.05641513	    126.49777356	    108.14059470	     26.30870678	     -2.83835718	     42.49847130	    128.22911562	    109.34549438
      0.06666670	      0.98847733	     -3.82086051	      1.94059775	      1.14513194	      0.97423459	      0.08916243	     23.03057536	      1.36877410	      1.19773106	     28.60126908	      0.49918632	     -0.20861647	    -13.50970957	     -7.18029752	     -1.56273565	      0.27711369	      4.20790104	      7.48065196	      0.13056201	     12.87587099	     -5.08197118	     -7.18029752	     -5.47616167	      2.53239809	     -5.15705661	     24.42247999	      1.27886452	     70.29572789	    125.56702661	    108.69151441	     25.97079865	     -2.63470776	     42.93447958	    127.81375361	    109.07743717
      0.08333330	      1.12500165	     -3.94794164	      1.96341064	      1.14528218	      0.97673857	      0.08234458	     22.96480418	      1.47649676	      1.95001344	     26.04039530	      0.45449064	     -0.08047646	    -12.54430330	     -7.19379535	     -1.77715225	      0.29602631	      4.62168184	      7.28682369	      0.12717907	     13.59702892	     -4.64179090	     -7.19379535	     -5.55559827	      2.89064191	     -5.25643586	     24.42407833	      1.57792284	     71.44415474	    125.16729567	    108.33422421	     25.85458454	     -2.26774597	     42.93453771	    127.43119038	    108.22163675
      0.10000000	      1.35227324	     -4.04262417	      1.89838674	      1.14469752	      0.97691877	      0.08234453	     23.03040084	      1.59724771	      2.76634294	     23.90223643	      0.41717272	      0.31732364	    -11.80762012	     -7.22713837	     -1.87570084	      0.27539514	      4.79804076	      7.36462849	      0.12853702	     14.62741635	     -4.19124405	     -7.22713837	     -5.80681644	      3.14072046	     -5.32096624	     24.50814437	      1.64345680	     72.39782588	    125.24796739	    107.77710458	     25.98215954	     -1.98478683	     42.98582591	    127.07257995	    107.29413880
      0.11666670	      1.42303108	     -4.07245133	      2.00025701	      1.13898994	      0.97654621	      0.07831329	     23.45642251	      1.49751850	      3.59895358	     21.67716838	      0.37833796	      0.79436731	    -11.12548355	     -7.23401409	     -1.56451531	      0.34496315	      5.05041842	      7.82037640	      0.13649132	     15.37879500	     -4.08192423	     -7.23401409	     -6.18148509	      3.30796987	     -5.49855077	     24.83083016	      1.68120827	     72.73577520	    125.37382759	    107.56830307	     26.58297040	     -1.92738089	     43.39719569	    126.86331283	    107.09726476
      0.13333330	      1.67836929	     -4.10601958	      1.92343556	      1.13268773	      0.97416252	      0.07411525	     24.00882283	      1.42539899	      4.39223835	     19.57782103	      0.34169744	      0.98204812	    -10.94282093	     -7.25120407	     -1.40321034	      0.46487025	      5.11605859	      8.30785600	      0.14499944	     16.07853779	     -4.03394474	     -7.25120407	     -7.05321387	      3.60048674	     -5.47765685	     25.95263315	      1.65966022	     72.89848019	    125.89731401	    106.52069717	     27.89485741	     -1.86836997	     43.86596627	    126.71301016	    106.25004049
      0.15000000	      2.06897993	     -4.27453341	      1.95150788	      1.13746754	      0.97523238	      0.07128563	     24.13071504	      1.39816497	      5.22014610	     17.27535510	      0.30151183	      1.27233125	    -10.65375998	     -7.29402457	     -1.63192831	      0.43446968	      5.27146989	      8.73789723	      0.15250508	     16.71850359	     -4.28687274	     -7.29402457	     -7.62862206	      4.02013180	     -5.70257667	     26.65943615	      1.50833651	     72.94481906	    126.33191521	    104.16459438	     28.84192672	     -1.78104111	     44.17390745	    126.37417601	    104.05659810
      0.16666670	      2.56353167	     -4.38165610	      1.83247827	      1.14222309	      0.97612660	      0.06866444	     24.06030230	      1.34799177	      5.89646949	     15.34169583	      0.26776311	      1.53527892	    -10.57074688	     -7.31061969	     -2.29162353	      0.46039488	      5.19848441	      8.99326792	      0.15696214	     17.68050064	     -4.11272439	     -7.31061969	     -8.07127428	      4.40932195	     -6.06041987	     26.95866181	      1.55481849	     73.24766299	    126.67345891	    104.44583440	     29.14537167	     -1.65134751	     43.95012634	    126.41888083	    104.68912754
      0.18333330	      3.06421451	     -4.28762777	      1.84524500	      1.14142043	      0.97648027	      0.06856469	     23.98353950	      0.96606242	      6.40747542	     13.19361948	      0.23027210	      1.33386221	    -10.52941882	     -7.31771704	     -3.18542257	      0.67522259	      5.37500949	      8.95714227	      0.15633162	     18.58543337	     -3.79560706	     -7.31771704	     -8.51831599	      4.46666706	     -6.55063171	     27.25742392	      1.89591032	     73.61128110	    126.68548532	    103.85508044	     29.55150758	     -1.84319964	     44.15789016	    126.52218523	    104.24573449
      0.20000000	      3.51274197	     -4.18351331	      1.85581477	      1.14075006	      0.97696983	      0.06828302	     23.88264182	      0.62114747	      6.80955548	     11.29180395	      0.19707916	      1.14110409	    -10.37390280	     -7.32903881	     -3.96146794	      0.85600964	      5.39448853	      9.08885789	      0.15863050	     19.34975633	     -3.60045631	     -7.32903881	     -8.98088019	      4.41108819	     -6.81255511	     27.76750850	      2.34908974	     74.24610840	    126.70963207	    103.32183109	     30.01773482	     -2.11034500	     44.64212305	    126.89495959	    103.77794001
      0.21666670	      3.92618793	     -4.06474983	      1.78906724	      1.14002642	      0.97713960	      0.06800615	     23.92378104	      0.31204956	      7.14086588	      9.54517726	      0.16659477	      0.69004867	    -10.05552701	     -7.34660766	     -4.72100463	      1.02878233	      5.29971676	      9.17287313	      0.16009684	     19.96442374	     -3.43185090	     -7.34660766	     -9.45671663	      4.28071730	     -7.02240976	     27.88233122	      2.77261172	     74.74678268	    126.49147757	    102.42737473	     30.43741844	     -2.43861285	     45.05975673	    126.81985478	    102.83361447
